<svg width="22" height="22" fill="none" xmlns="http://www.w3.org/2000/svg"><path d="M13.105 11a2.106 2.106 0 11-4.211 0 2.106 2.106 0 014.211 0z" fill="#909EBB"/><path d="M15.924 7.275a2.092 2.092 0 00-1.2-1.199 3.494 3.494 0 00-1.173-.22c-.666-.03-.866-.036-2.553-.036-1.686 0-1.886.006-2.552.036-.401.006-.798.08-1.174.22a2.092 2.092 0 00-1.199 1.2c-.14.375-.214.772-.22 1.173-.03.666-.036.866-.036 2.553 0 1.686.006 1.886.036 2.552.006.401.08.798.22 1.173a2.091 2.091 0 001.2 1.2c.375.14.772.214 1.173.22.666.03.865.036 2.552.036s1.887-.006 2.553-.037c.4-.005.797-.08 1.173-.22a2.09 2.09 0 001.199-1.199 3.5 3.5 0 00.22-1.173c.03-.666.037-.866.037-2.553 0-1.686-.007-1.886-.037-2.552a3.49 3.49 0 00-.22-1.174zM11 14.242a3.244 3.244 0 110-6.49 3.244 3.244 0 010 6.491zm3.373-5.857a.758.758 0 11.29-.056.758.758 0 01-.291.057l.001-.001z" fill="#909EBB"/><path d="M11 0a11 11 0 100 22 11 11 0 000-22zm6.278 13.604a4.636 4.636 0 01-.293 1.534 3.227 3.227 0 01-1.848 1.847 4.613 4.613 0 01-1.533.293c-.674.03-.889.038-2.604.038s-1.93-.007-2.604-.038a4.638 4.638 0 01-1.533-.293 3.227 3.227 0 01-1.848-1.848 4.634 4.634 0 01-.293-1.533c-.029-.673-.038-.889-.038-2.604s.007-1.93.038-2.604c.01-.524.11-1.043.293-1.533a3.232 3.232 0 011.848-1.848 4.638 4.638 0 011.533-.293c.674-.03.889-.038 2.604-.038s1.93.007 2.604.038a4.64 4.64 0 011.534.293 3.23 3.23 0 011.847 1.848c.184.49.283 1.009.293 1.533.03.674.038.889.038 2.604s-.01 1.93-.038 2.604z" fill="#909EBB"/></svg>