<svg width="147" height="108" fill="none" xmlns="http://www.w3.org/2000/svg"><path fill-rule="evenodd" clip-rule="evenodd" d="M21.386 16.213h21.69v59.114h-21.69V16.213z" fill="#fff"/><path fill-rule="evenodd" clip-rule="evenodd" d="M47.64 51.032h9.292V84.97H47.64V51.03z" fill="#0B5AD1"/><path fill-rule="evenodd" clip-rule="evenodd" d="M47.64 0c12.528 0 22.686 10.132 22.686 22.629 0 12.497-10.158 22.629-22.687 22.629V0z" fill="#FF0318"/><path fill-rule="evenodd" clip-rule="evenodd" d="M58.974 13.64H11.846v-2.994h47.128v2.995zM34.969 8.619H0v-.972h34.969v.972zm8.107-3.649h-21.69V0h21.69v4.97z" fill="#0B5AD1"/><path fill-rule="evenodd" clip-rule="evenodd" d="M15.818 33.214L28.41 45.773 15.82 58.327V33.214z" fill="#FF0318"/><path d="M33.285 97.103c0 3.166-2.451 5.528-5.687 5.528h-2.716v5.017h-3.487V91.576h6.203c3.231 0 5.687 2.357 5.687 5.527zm-3.531 0c0-1.337-.926-2.304-2.31-2.304h-2.562v4.613h2.561c1.385 0 2.31-.972 2.31-2.309zm13.194-1.922v3.162H41.49c-1.896 0-2.64.836-2.64 2.863v6.442h-3.36V95.252h2.156l.595 1.521c.886-1.095 2.01-1.587 3.606-1.587h1.102v-.005zm.812 6.267c0-3.76 2.87-6.548 6.718-6.548 3.831 0 6.719 2.792 6.719 6.548 0 3.738-2.888 6.548-6.719 6.548-3.849.004-6.718-2.806-6.718-6.548zm10.034 0c0-2.01-1.376-3.4-3.311-3.4-1.936 0-3.311 1.39-3.311 3.4 0 2.009 1.375 3.399 3.31 3.399 1.936 0 3.312-1.39 3.312-3.399zm24.33-1.574v7.774h-3.359v-7.22c0-1.654-.652-2.529-1.87-2.529-1.498 0-2.389 1.104-2.389 3.043v6.706h-3.275v-7.22c0-1.654-.63-2.529-1.834-2.529-1.521 0-2.43 1.104-2.43 3.043v6.706h-3.359V95.252h2.35l.63 1.539c.882-1.108 2.245-1.83 3.708-1.83 1.583 0 2.888.74 3.606 1.984a4.706 4.706 0 013.85-1.983c2.57-.005 4.373 2.005 4.373 4.912z" fill="#fff"/><path d="M81.973 91.576h1.16v16.072h-1.16V91.576zm11.507 3.425c2.984 0 4.85 2.142 4.85 5.286v7.366H97.2v-7.133c0-2.814-1.472-4.477-3.976-4.477-2.407 0-4.404 2.054-4.404 4.534v7.076h-1.13V95.256h.842l.22 2.511c.9-1.666 2.672-2.766 4.727-2.766zm18.939.251l-5.436 12.396h-.992l-5.564-12.396h1.182l4.876 10.883 4.774-10.883h1.16zm13.764 6.592h-11.286c.18 2.897 2.301 4.951 5.149 4.951 2.041 0 3.672-1.029 4.594-2.762h1.194c-1.133 2.485-3.196 3.866-5.788 3.866-3.567 0-6.265-2.779-6.265-6.46 0-3.659 2.703-6.438 6.265-6.438 3.637 0 6.159 2.819 6.159 6.407 0 .141-.014.295-.022.436zm-11.269-1.051h10.175c-.273-2.846-2.354-4.723-5.048-4.723-2.764.004-4.845 1.952-5.127 4.723zm18.194 7.106c-2.843 0-4.642-1.434-4.809-3.764h1.106c.168 1.732 1.583 2.713 3.734 2.713 2.156 0 3.615-.985 3.615-2.542 0-1.922-1.869-2.273-3.8-2.599-2.143-.369-4.413-.765-4.413-3.315 0-2.023 1.812-3.395 4.497-3.395 2.693 0 4.413 1.38 4.519 3.584h-1.076c-.106-1.618-1.38-2.564-3.465-2.564-2.046 0-3.377.937-3.377 2.344 0 1.684 1.679 1.961 3.584 2.278 2.165.356 4.647.782 4.647 3.628 0 2.189-1.905 3.632-4.762 3.632zM147 106.597v1.051h-1.486c-2.429 0-3.915-1.491-3.915-3.953v-7.418h-2.072v-.255l2.976-2.964h.225v2.19h4.179v1.028h-4.179v7.384c0 1.864 1.045 2.933 2.914 2.933H147v.004z" fill="#0B5AD1"/></svg>