<svg width="152" height="32" fill="none" xmlns="http://www.w3.org/2000/svg"><path fill-rule="evenodd" clip-rule="evenodd" d="M6.996 5.895h7.773v22.737H6.996V5.895z" fill="#fff"/><path fill-rule="evenodd" clip-rule="evenodd" d="M16.324 18.526h3.886V32h-3.886V18.526z" fill="#0B5AD1"/><path fill-rule="evenodd" clip-rule="evenodd" d="M16.324 0c4.293 0 7.773 3.77 7.773 8.421 0 4.65-3.48 8.421-7.773 8.421V0z" fill="#FF0318"/><path fill-rule="evenodd" clip-rule="evenodd" d="M20.21 5.053H3.887V4.21H20.21v.842zm-7.773-1.685H0v-.842h12.437v.842zm2.333-1.684H6.995V0h7.773v1.684z" fill="#0B5AD1"/><path fill-rule="evenodd" clip-rule="evenodd" d="M5.441 12.632l3.887 4.632-3.887 4.63v-9.262z" fill="#FF0318"/><path d="M50.44 19.776c0 2.617-2.185 4.569-5.07 4.569h-2.422v4.146h-3.11V15.208h5.531c2.882 0 5.071 1.948 5.071 4.568zm-3.149 0c0-1.104-.825-1.904-2.06-1.904h-2.284v3.812h2.284c1.235 0 2.06-.803 2.06-1.908zm11.766-1.588v2.613h-1.301c-1.69 0-2.355.69-2.355 2.366v5.324h-2.995V18.246h1.922l.53 1.258c.79-.905 1.793-1.312 3.216-1.312h.983v-.004zm.723 5.179c0-3.107 2.56-5.411 5.991-5.411 3.416 0 5.991 2.307 5.991 5.41 0 3.09-2.575 5.412-5.99 5.412-3.433.004-5.992-2.319-5.992-5.411zm8.948 0c0-1.661-1.227-2.81-2.953-2.81-1.726 0-2.952 1.149-2.952 2.81 0 1.66 1.226 2.81 2.952 2.81s2.953-1.15 2.953-2.81zm21.695-1.301v6.425h-2.996v-5.967c0-1.367-.581-2.09-1.666-2.09-1.337 0-2.13.912-2.13 2.515v5.542h-2.922v-5.967c0-1.367-.562-2.09-1.635-2.09-1.356 0-2.166.912-2.166 2.515v5.542h-2.996V18.246h2.096l.562 1.272c.786-.916 2-1.512 3.306-1.512 1.411 0 2.575.611 3.216 1.64.758-.996 2.02-1.64 3.431-1.64 2.292-.003 3.9 1.658 3.9 4.06z" fill="#fff"/><path d="M93.855 15.208h1.034v13.283h-1.034V15.208zm10.26 2.832c2.661 0 4.324 1.769 4.324 4.367v6.088h-1.006V22.6c0-2.326-1.313-3.7-3.546-3.7-2.147 0-3.927 1.698-3.927 3.747v5.848h-1.007V18.25h.751l.197 2.075c.802-1.377 2.382-2.286 4.214-2.286zm16.888.207l-4.847 10.244h-.885l-4.961-10.244h1.054l4.348 8.994 4.257-8.994h1.034zm12.272 5.447h-10.063c.161 2.395 2.052 4.092 4.591 4.092 1.82 0 3.275-.85 4.097-2.282h1.065c-1.01 2.053-2.85 3.194-5.162 3.194-3.18 0-5.586-2.297-5.586-5.338 0-3.024 2.41-5.32 5.586-5.32 3.244 0 5.492 2.329 5.492 5.294 0 .117-.012.244-.02.36zm-10.047-.869h9.073c-.244-2.35-2.1-3.903-4.502-3.903-2.464.004-4.32 1.614-4.571 3.903zm16.223 5.873c-2.535 0-4.139-1.184-4.289-3.11h.987c.15 1.431 1.411 2.242 3.33 2.242 1.922 0 3.223-.814 3.223-2.1 0-1.589-1.667-1.88-3.388-2.149-1.911-.305-3.935-.632-3.935-2.74 0-1.672 1.615-2.805 4.009-2.805 2.402 0 3.935 1.14 4.03 2.961h-.959c-.095-1.337-1.231-2.118-3.09-2.118-1.824 0-3.012.774-3.012 1.937 0 1.392 1.498 1.62 3.196 1.882 1.931.295 4.144.647 4.144 2.998 0 1.81-1.698 3.002-4.246 3.002zm12.387-1.076v.87h-1.325c-2.166 0-3.491-1.233-3.491-3.268v-6.13h-1.847v-.212l2.653-2.45h.201v1.81h3.726v.851h-3.726v6.102c0 1.54.931 2.424 2.598 2.424h1.211v.003z" fill="#0B5AD1"/></svg>